<svg xmlns="http://www.w3.org/2000/svg" version="1.1" xmlns:xlink="http://www.w3.org/1999/xlink" xmlns:svgjs="http://svgjs.com/svgjs" width="125px" height="160px"><svg version="1.1" id="SvgjsSvg1013" xmlns="http://www.w3.org/2000/svg" xmlns:xlink="http://www.w3.org/1999/xlink" x="0px" y="0px" width="125px" height="160px" viewBox="0 0 125 160" enable-background="new 0 0 125 160" xml:space="preserve">
<path fill="#FFFFFF" d="M116.011,109.106h0.009V3.667H2.083v105.439H2.1c-0.003,0.181-0.017,0.355-0.017,0.535
	c0,26.554,25.507,48.073,56.972,48.073c31.464,0,56.971-21.52,56.971-48.073C116.026,109.462,116.013,109.287,116.011,109.106z"></path>
<line fill="none" stroke="#E41F22" stroke-width="3.7158" x1="14.067" y1="139.274" x2="113.688" y2="21.506"></line>
<line fill="none" stroke="#F0E40F" stroke-width="3.7158" x1="16.965" y1="141.495" x2="116.585" y2="23.729"></line>
<line fill="none" stroke="#E41F22" stroke-width="3.7158" x1="104.85" y1="139.593" x2="5.228" y2="21.828"></line>
<line fill="none" stroke="#F0E40F" stroke-width="3.7158" x1="101.953" y1="141.815" x2="2.333" y2="24.051"></line>
<rect x="3.033" y="4.383" fill="#E41F22" width="112.517" height="20.113"></rect>
<path fill="#F0E40F" stroke="#1D1D1B" stroke-width="1.6635" stroke-miterlimit="10" d="M92.188,107.916h0.004V49.271H26.395v58.645
	h0.009c-0.001,0.101-0.009,0.199-0.009,0.298c0,14.77,14.73,26.74,32.902,26.74c18.171,0,32.901-11.971,32.901-26.74
	C92.198,108.115,92.188,108.017,92.188,107.916z"></path>
<g transform="translate(-120.1,441.4)">
	<path id="SvgjsPath1012" fill="#D9261D" stroke="#000100" stroke-width="0.361" d="M59.708,61.198c-2.076,0-3.756,1.682-3.756,3.757
		c0,2.074,1.681,3.756,3.756,3.756c2.075,0,3.757-1.682,3.757-3.756C63.465,62.879,61.783,61.198,59.708,61.198z M59.708,62.832
		c1.168,0,2.119,0.95,2.119,2.123c0,1.171-0.951,2.121-2.119,2.121c-1.169,0-2.119-0.95-2.119-2.121
		C57.589,63.781,58.539,62.832,59.708,62.832z"></path>
</g>
<g id="SvgjsG1011" transform="translate(.6)">
	<g id="SvgjsG1010" transform="translate(101.9,441.4)">
		<path id="SvgjsPath1009" fill="#D9261D" stroke="#000100" stroke-width="0.361" d="M-18.482-380.202c-2.077,0-3.758,1.682-3.758,3.757
			c0,2.074,1.681,3.756,3.758,3.756c2.075,0,3.758-1.682,3.758-3.756C-14.725-378.521-16.407-380.202-18.482-380.202z
			 M-18.482-378.568c1.168,0,2.119,0.95,2.119,2.123c0,1.171-0.951,2.121-2.119,2.121c-1.169,0-2.119-0.95-2.119-2.121
			C-20.602-377.619-19.651-378.568-18.482-378.568z"></path>
		<g>
			<g>
				<path fill="#D9261D" stroke="#000100" stroke-width="0.3604" d="M-17.479-344.03v9.796c-0.295,1.354-1.157,2.767-2.881,3.224
					v-6.97"></path>
				<path fill="#D9261D" stroke="#000100" stroke-width="0.3604" d="M-19.323-339.422v8.313c-0.296,1.354-1.102,2.248-2.883,2.729
					l-0.045-7.207"></path>
				<path fill="#D9261D" stroke="#000100" stroke-width="0.3604" d="M-21.19-336.857v8.325c-0.296,1.363-1.125,2.127-2.861,2.488
					l-0.076-7.74"></path>
				<path fill="#D9261D" stroke="#000100" stroke-width="0.3604" d="M-23.036-334.724v8.071c-0.067,1.428-1.463,2.467-2.993,2.312
					l0.076-7.654"></path>
				<path fill="#D9261D" stroke="#000100" stroke-width="0.3604" d="M-25.014-332.859v8.224c-0.295,1.355-1.112,2.066-2.861,2.086
					l-0.01-7.949"></path>
				<path fill="#D9261D" stroke="#000100" stroke-width="0.3604" d="M-26.946-331.417v8.749c-0.294,1.352-1.387,1.912-2.195,1.406
					v-8.574"></path>
				<path fill="#D9261D" stroke="#000100" stroke-width="0.3604" d="M-29.186-329.955v8.794c0,1.058-1.964,1.89-1.964,0.599v-8.461"></path>
				<path fill="#D9261D" stroke="#000100" stroke-width="0.3604" d="M-42.694-329.077v9.13c0,1.602,2.009,1.438,2.009,0.03v-9.16"></path>
				<path fill="#D9261D" stroke="#000100" stroke-width="0.3604" d="M-40.466-329.103v8.969c0,1.605,2.009,1.441,2.009,0.031v-9"></path>
				<path fill="#D9261D" stroke="#000100" stroke-width="0.3604" d="M-38.273-329.002v8.844c0,1.604,2.01,1.442,2.01,0.035v-8.879"></path>
				<path fill="#D9261D" stroke="#000100" stroke-width="0.3604" d="M-36.098-329.067v8.823c0,1.604,2.01,1.442,2.01,0.032v-8.855"></path>
			</g>
			<path fill="#D9261D" stroke="#000100" stroke-width="0.546" d="M-42.902-329.067h8.77v-23.374h3.068v23.374
				c4.576-1.455,11.018-7.799,13.488-13.826v-31.9l-1.726-0.002l-1.747,2.443H-40.4l-1.454-2.443h-1.048"></path>
		</g>
		<path id="SvgjsPath1008" fill="#D9261D" stroke="#000100" stroke-width="0.361" d="M-44.889-363.403l2.097-2.096l2.097,2.096l-2.097,2.098
			L-44.889-363.403z M-47.784-363.403l4.992-4.992l4.989,4.992l-4.989,4.991L-47.784-363.403z"></path>
		<path fill="none" stroke="#000100" stroke-width="0.3604" d="M-42.902-331.404h6.443v-23.558h7.731l0.044,22.225
			c3.856-2.337,7.099-6.553,9.218-10.364v-15.389"></path>
		<g transform="translate(92.58)">
			<path id="SvgjsPath1007" fill="#D9261D" stroke="#000100" stroke-width="0.361" d="M-34.78-363.403l2.096-2.096l2.099,2.096l-2.099,2.098
				L-34.78-363.403z M-37.673-363.403l4.989-4.992l4.993,4.992l-4.993,4.991L-37.673-363.403z"></path>
		</g>
		<g transform="translate(185.2)">
			<path id="SvgjsPath1006" fill="#D9261D" stroke="#000100" stroke-width="0.361" d="M-24.664-363.403l2.099-2.096l2.096,2.096
				l-2.096,2.098L-24.664-363.403z M-27.557-363.403l4.991-4.992l4.989,4.992l-4.989,4.991L-27.557-363.403z"></path>
		</g>
	</g>
</g>
<g>
	<g id="SvgjsG1005" transform="translate(.6)">
		<g id="SvgjsG1004" transform="translate(101.9,441.4)">
			<path id="SvgjsPath1003" fill="#D9261D" stroke="#000100" stroke-width="0.361" d="M-67.104-380.202c2.076,0,3.758,1.682,3.758,3.757
				c0,2.074-1.682,3.756-3.758,3.756c-2.075,0-3.755-1.682-3.755-3.756C-70.858-378.521-69.178-380.202-67.104-380.202z
				 M-67.104-378.568c-1.167,0-2.118,0.95-2.118,2.123c0,1.171,0.951,2.121,2.118,2.121c1.171,0,2.12-0.95,2.12-2.121
				C-64.984-377.619-65.933-378.568-67.104-378.568z"></path>
			<g>
				<g>
					<path fill="#D9261D" stroke="#000100" stroke-width="0.3604" d="M-68.107-344.03v9.796c0.294,1.354,1.158,2.767,2.884,3.224
						v-6.97"></path>
					<path fill="#D9261D" stroke="#000100" stroke-width="0.3604" d="M-66.262-339.422v8.313c0.296,1.354,1.104,2.248,2.884,2.729
						l0.043-7.207"></path>
					<path fill="#D9261D" stroke="#000100" stroke-width="0.3604" d="M-64.394-336.857v8.325c0.295,1.363,1.125,2.127,2.861,2.488
						l0.076-7.74"></path>
					<path fill="#D9261D" stroke="#000100" stroke-width="0.3604" d="M-62.547-334.724v8.071c0.064,1.428,1.463,2.467,2.992,2.312
						l-0.078-7.654"></path>
					<path fill="#D9261D" stroke="#000100" stroke-width="0.3604" d="M-60.571-332.859v8.224c0.294,1.355,1.113,2.066,2.862,2.086
						l0.012-7.949"></path>
					<path fill="#D9261D" stroke="#000100" stroke-width="0.3604" d="M-58.639-331.417v8.749c0.296,1.352,1.388,1.912,2.195,1.406
						v-8.574"></path>
					<path fill="#D9261D" stroke="#000100" stroke-width="0.3604" d="M-56.4-329.955v8.794c0,1.058,1.967,1.89,1.967,0.599v-8.461"></path>
					<path fill="#D9261D" stroke="#000100" stroke-width="0.3604" d="M-42.891-329.077v9.13c0,1.602-2.01,1.438-2.01,0.03v-9.16"></path>
					<path fill="#D9261D" stroke="#000100" stroke-width="0.3604" d="M-45.118-329.103v8.969c0,1.605-2.011,1.441-2.011,0.031v-9"></path>
					<path fill="#D9261D" stroke="#000100" stroke-width="0.3604" d="M-47.313-329.002v8.844c0,1.604-2.01,1.442-2.01,0.035v-8.879"></path>
					<path fill="#D9261D" stroke="#000100" stroke-width="0.3604" d="M-49.488-329.067v8.823c0,1.604-2.009,1.442-2.009,0.032
						v-8.855"></path>
				</g>
				<path fill="#D9261D" stroke="#000100" stroke-width="0.546" d="M-42.684-329.067h-8.769v-23.374h-3.068v23.374
					c-4.577-1.455-11.02-7.799-13.488-13.826v-31.9l1.726-0.002l1.747,2.443h19.354l1.45-2.443h1.048"></path>
			</g>
			<path id="SvgjsPath1002" fill="#D9261D" stroke="#000100" stroke-width="0.361" d="M-40.695-363.403l-2.097-2.096l-2.097,2.096
				l2.097,2.098L-40.695-363.403z M-37.803-363.403l-4.989-4.992l-4.992,4.992l4.992,4.991L-37.803-363.403z"></path>
			<path fill="none" stroke="#000100" stroke-width="0.3604" d="M-42.684-331.404h-6.442v-23.558h-7.733l-0.044,22.225
				c-3.854-2.337-7.099-6.553-9.216-10.364v-15.389"></path>
			<g transform="translate(92.58)">
				<path id="SvgjsPath1001" fill="#D9261D" stroke="#000100" stroke-width="0.361" d="M-50.806-363.403l-2.097-2.096L-55-363.403
					l2.097,2.098L-50.806-363.403z M-47.913-363.403l-4.99-4.992l-4.991,4.992l4.991,4.991L-47.913-363.403z"></path>
			</g>
			<g transform="matrix(-1,0,0,1,806,0)">
				<path id="SvgjsPath1000" fill="#D9261D" stroke="#000100" stroke-width="0.361" d="M-60.922-363.403l-2.096-2.096l-2.097,2.096
					l2.097,2.098L-60.922-363.403z M-58.027-363.403l-4.991-4.992l-4.991,4.992l4.991,4.991L-58.027-363.403z"></path>
			</g>
		</g>
	</g>
	<path fill="#D9261D" stroke="#000100" stroke-width="0.3604" d="M34.71,72.886h50.214v1.973H34.71V72.886z"></path>
	<path fill="#D9261D" stroke="#000100" stroke-width="0.3604" d="M34.71,81.033h50.214v1.973H34.71V81.033z"></path>
</g>
<g>
	<path fill="#1D1D1B" d="M51.652,35.02h-0.481l0.073-3.412h13.785l0.073,3.412h-0.45c-0.16-0.935-0.38-1.61-0.659-2.025
		c-0.279-0.415-0.579-0.67-0.9-0.764c-0.321-0.094-0.869-0.141-1.643-0.141h-2.282v10.017c0,1.109,0.026,1.839,0.078,2.188
		c0.053,0.349,0.194,0.607,0.424,0.774c0.23,0.167,0.663,0.251,1.298,0.251h0.691v0.481h-7.086V45.32h0.732
		c0.607,0,1.027-0.077,1.261-0.23c0.234-0.153,0.384-0.393,0.45-0.717c0.066-0.325,0.1-1.08,0.1-2.266V32.089h-2.104
		c-0.914,0-1.528,0.043-1.842,0.131c-0.314,0.087-0.609,0.351-0.884,0.79C52.01,33.45,51.799,34.12,51.652,35.02z"></path>
</g>
<g>
	<path fill="#1D1D1B" d="M104.274,99.048h-0.636l-4.892-11.299c-0.091-0.202-0.233-0.551-0.428-1.045
		c-0.272-0.669-0.558-1.118-0.857-1.349c-0.3-0.229-0.784-0.352-1.452-0.365v-0.481h6.103v0.481c-0.764,0-1.276,0.056-1.538,0.167
		c-0.263,0.112-0.394,0.325-0.394,0.639c0,0.202,0.164,0.677,0.492,1.424l4.082,9.429l3.276-7.849
		c0.551-1.312,0.827-2.166,0.827-2.564c0-0.802-0.567-1.218-1.701-1.245v-0.481h4.323v0.481c-0.439,0.014-0.827,0.171-1.162,0.471
		c-0.335,0.301-0.624,0.74-0.868,1.319l-0.952,2.229L104.274,99.048z"></path>
</g>
<g>
	<path fill="#1D1D1B" d="M21.583,98.702h-3.821c-0.677-0.475-1.713-1.717-3.109-3.727c-0.446-0.642-0.911-1.258-1.392-1.848
		c-0.481-0.589-0.813-0.948-0.994-1.078c-0.182-0.129-0.464-0.193-0.848-0.193h-0.565v3.15c0,1.117,0.026,1.848,0.079,2.193
		c0.052,0.346,0.191,0.602,0.418,0.77c0.227,0.167,0.661,0.251,1.303,0.251h0.68v0.481H6.541v-0.481h0.46
		c0.607,0,1.027-0.077,1.261-0.23s0.382-0.393,0.445-0.717c0.063-0.324,0.094-1.08,0.094-2.267v-6.96
		c0-1.131-0.031-1.86-0.094-2.188c-0.062-0.327-0.203-0.555-0.418-0.68c-0.216-0.126-0.684-0.188-1.403-0.188H6.646v-0.481
		l2.031-0.104c1.354-0.063,2.428-0.095,3.224-0.095c1.354,0,2.455,0.126,3.303,0.377c0.848,0.251,1.533,0.663,2.057,1.235
		s0.785,1.256,0.785,2.052c0,0.928-0.342,1.72-1.026,2.376c-0.684,0.655-1.689,1.063-3.015,1.225
		c0.594,0.285,1.55,1.318,2.869,3.098c1.074,1.445,1.918,2.391,2.533,2.837c0.614,0.446,1.34,0.684,2.177,0.712V98.702z
		 M10.854,91.375c0.523-0.014,1.064-0.035,1.622-0.062c0.559-0.028,1.043-0.104,1.455-0.23s0.745-0.309,1-0.55
		c0.255-0.24,0.456-0.557,0.602-0.947s0.22-0.872,0.22-1.444c0-0.998-0.25-1.797-0.749-2.396c-0.499-0.601-1.585-0.9-3.26-0.9
		c-0.258,0-0.555,0.014-0.89,0.042V91.375z"></path>
</g>
<g>
	<path fill="#FFFFFF" d="M33.941,8.024h-2.031v5.41h-0.816v-5.41h-2.014V7.295h4.861V8.024z"></path>
	<path fill="#FFFFFF" d="M39.543,13.538c-0.712,0-1.244-0.138-1.598-0.415c-0.353-0.276-0.576-0.601-0.669-0.975
		c-0.094-0.374-0.141-0.808-0.141-1.302V7.295h0.812v3.538c0,0.807,0.135,1.337,0.406,1.591c0.271,0.254,0.667,0.381,1.189,0.381
		s0.918-0.127,1.189-0.381c0.271-0.254,0.406-0.784,0.406-1.591V7.295h0.816v3.551c0,0.742-0.089,1.29-0.266,1.641
		s-0.444,0.615-0.802,0.789C40.53,13.451,40.082,13.538,39.543,13.538z M39.162,6.739h-0.774V5.88h0.774V6.739z M40.711,6.739
		h-0.771V5.88h0.771V6.739z"></path>
	<path fill="#FFFFFF" d="M50.286,11.65c0,0.575-0.195,1.016-0.586,1.323c-0.391,0.307-0.959,0.46-1.704,0.46h-2.299V7.295h2.186
		c0.653,0,1.167,0.14,1.541,0.419s0.561,0.662,0.561,1.147c0,0.592-0.294,1.03-0.883,1.315c0.396,0.101,0.693,0.285,0.89,0.555
		S50.286,11.307,50.286,11.65z M46.509,9.866h1.365c0.449,0,0.78-0.072,0.992-0.215c0.212-0.144,0.318-0.383,0.318-0.718
		c0-0.301-0.104-0.528-0.31-0.68C48.668,8.1,48.31,8.024,47.799,8.024h-1.29V9.866z M46.509,12.705h1.478
		c0.971,0,1.457-0.352,1.457-1.055c0-0.366-0.112-0.633-0.337-0.802c-0.225-0.169-0.633-0.253-1.225-0.253h-1.373V12.705z"></path>
	<path fill="#FFFFFF" d="M54.65,13.434h-0.816V7.295h0.816V13.434z"></path>
	<path fill="#FFFFFF" d="M63.273,13.434h-0.833l-3.215-4.844v4.844h-0.771V7.295h0.829l3.216,4.844V7.295h0.774V13.434z"></path>
	<path fill="#FFFFFF" d="M69.704,13.538c-0.882,0-1.598-0.289-2.146-0.867c-0.548-0.578-0.823-1.347-0.823-2.307
		c0-0.963,0.271-1.733,0.812-2.309c0.542-0.577,1.252-0.865,2.131-0.865c0.74,0,1.354,0.178,1.844,0.534
		c0.49,0.356,0.764,0.833,0.823,1.43h-0.841c-0.034-0.396-0.212-0.707-0.536-0.932s-0.751-0.337-1.281-0.337
		c-0.633,0-1.144,0.216-1.53,0.649c-0.387,0.433-0.58,1.042-0.58,1.83c0,0.784,0.195,1.394,0.586,1.828s0.902,0.651,1.533,0.651
		c0.885,0,1.542-0.292,1.972-0.875v-0.934h-1.62v-0.733h2.407v3.132h-0.573l-0.214-0.645C71.251,13.289,70.597,13.538,69.704,13.538
		z"></path>
	<path fill="#FFFFFF" d="M80.677,13.434h-4.576V7.295h4.434v0.729h-3.622V9.9h3.387v0.729h-3.387v2.077h3.764V13.434z"></path>
	<path fill="#FFFFFF" d="M89.172,13.434h-0.879l-0.578-1.637c-0.103-0.29-0.274-0.527-0.515-0.711
		c-0.24-0.185-0.517-0.276-0.829-0.276h-1.503v2.625h-0.812V7.295h2.718c0.475,0,0.862,0.046,1.164,0.138
		c0.301,0.092,0.547,0.286,0.736,0.582s0.285,0.629,0.285,1.001c0,0.424-0.123,0.779-0.369,1.063
		c-0.245,0.285-0.582,0.47-1.009,0.557v0.017c0.427,0.137,0.752,0.507,0.976,1.11L89.172,13.434z M84.868,10.08h1.812
		c0.506,0,0.872-0.08,1.1-0.239s0.341-0.434,0.341-0.825c0-0.698-0.438-1.047-1.314-1.047h-1.938V10.08z"></path>
	<path fill="#FFFFFF" d="M22.364,22.008h-0.879l-0.578-1.637c-0.104-0.29-0.275-0.527-0.515-0.711
		c-0.24-0.185-0.517-0.276-0.829-0.276H18.06v2.625h-0.812V15.87h2.717c0.475,0,0.863,0.046,1.164,0.138
		c0.301,0.092,0.547,0.286,0.737,0.582s0.285,0.629,0.285,1.001c0,0.424-0.123,0.779-0.368,1.063s-0.582,0.47-1.009,0.557v0.017
		c0.427,0.137,0.752,0.507,0.976,1.11L22.364,22.008z M18.06,18.655h1.813c0.505,0,0.872-0.08,1.099-0.239
		c0.227-0.159,0.341-0.434,0.341-0.825c0-0.698-0.438-1.047-1.314-1.047H18.06V18.655z"></path>
	<path fill="#FFFFFF" d="M28.114,22.113c-0.712,0-1.244-0.138-1.598-0.415c-0.353-0.276-0.576-0.601-0.669-0.975
		c-0.094-0.374-0.141-0.808-0.141-1.302V15.87h0.812v3.538c0,0.807,0.135,1.337,0.406,1.591c0.271,0.254,0.667,0.381,1.189,0.381
		s0.918-0.127,1.189-0.381c0.271-0.254,0.406-0.784,0.406-1.591V15.87h0.816v3.551c0,0.742-0.089,1.29-0.266,1.641
		s-0.444,0.615-0.802,0.789C29.101,22.026,28.653,22.113,28.114,22.113z"></path>
	<path fill="#FFFFFF" d="M34.268,15.87h1.947c2.085,0,3.127,1.012,3.127,3.036c0,2.068-1.042,3.103-3.127,3.103h-1.947V15.87z
		 M35.08,21.28h1.118c0.891,0,1.498-0.207,1.821-0.622s0.486-0.999,0.486-1.752c0-0.734-0.161-1.302-0.483-1.704
		c-0.323-0.402-0.931-0.603-1.824-0.603H35.08V21.28z"></path>
	<path fill="#FFFFFF" d="M47.404,22.008h-4.576V15.87h4.434v0.729h-3.622v1.876h3.387v0.729h-3.387v2.077h3.764V22.008z"></path>
	<path fill="#FFFFFF" d="M55.899,22.008H55.02l-0.578-1.637c-0.104-0.29-0.275-0.527-0.515-0.711
		c-0.24-0.185-0.517-0.276-0.829-0.276h-1.503v2.625h-0.812V15.87H53.5c0.475,0,0.863,0.046,1.164,0.138
		c0.301,0.092,0.547,0.286,0.737,0.582s0.285,0.629,0.285,1.001c0,0.424-0.123,0.779-0.368,1.063s-0.582,0.47-1.009,0.557v0.017
		c0.427,0.137,0.752,0.507,0.976,1.11L55.899,22.008z M51.595,18.655h1.813c0.505,0,0.872-0.08,1.099-0.239
		c0.227-0.159,0.341-0.434,0.341-0.825c0-0.698-0.438-1.047-1.314-1.047h-1.938V18.655z"></path>
	<path fill="#FFFFFF" d="M64.159,15.87l-2.387,6.138h-0.837l-2.387-6.138h0.867l1.938,5.263l1.938-5.263H64.159z"></path>
	<path fill="#FFFFFF" d="M71.864,22.008h-4.576V15.87h4.434v0.729h-3.622v1.876h3.387v0.729h-3.387v2.077h3.764V22.008z"></path>
	<path fill="#FFFFFF" d="M80.359,22.008H79.48l-0.578-1.637c-0.104-0.29-0.275-0.527-0.515-0.711
		c-0.24-0.185-0.517-0.276-0.829-0.276h-1.503v2.625h-0.812V15.87h2.717c0.475,0,0.863,0.046,1.164,0.138
		c0.301,0.092,0.547,0.286,0.737,0.582s0.285,0.629,0.285,1.001c0,0.424-0.123,0.779-0.368,1.063s-0.582,0.47-1.009,0.557v0.017
		c0.427,0.137,0.752,0.507,0.976,1.11L80.359,22.008z M76.055,18.655h1.813c0.505,0,0.872-0.08,1.099-0.239
		c0.227-0.159,0.341-0.434,0.341-0.825c0-0.698-0.438-1.047-1.314-1.047h-1.938V18.655z"></path>
	<path fill="#FFFFFF" d="M88.336,22.008H83.76V15.87h4.434v0.729h-3.621v1.876h3.387v0.729h-3.387v2.077h3.764V22.008z"></path>
	<path fill="#FFFFFF" d="M92.583,22.008h-0.816V15.87h0.816V22.008z"></path>
	<path fill="#FFFFFF" d="M101.206,22.008h-0.833l-3.216-4.844v4.844h-0.771V15.87h0.829l3.216,4.844V15.87h0.774V22.008z"></path>
</g>
<path fill="none" stroke="#1D1D1B" stroke-width="2.9402" stroke-miterlimit="10" d="M116.397,109.106h0.007V3.667H2.083v105.439
	H2.1c-0.003,0.181-0.017,0.355-0.017,0.535c0,26.554,25.594,48.073,57.165,48.073s57.165-21.52,57.165-48.073
	C116.412,109.462,116.401,109.287,116.397,109.106z"></path>
<line fill="none" stroke="#1D1D1B" stroke-width="2.9402" stroke-miterlimit="10" x1="2.35" y1="25.166" x2="115.59" y2="25.166"></line>
<g>
	<path fill="#1D1D1B" d="M45.046,141.302l-0.63-0.183l1.115-3.865c-0.304,0.097-0.723,0.068-1.257-0.086l0.143-0.496
		c0.771,0.222,1.299,0.053,1.585-0.509l0.486,0.14L45.046,141.302z"></path>
	<path fill="#1D1D1B" d="M49.456,139.604c0.624,0.471,0.876,0.979,0.757,1.525c-0.091,0.42-0.317,0.728-0.677,0.922
		c-0.36,0.194-0.787,0.237-1.28,0.13c-0.491-0.106-0.86-0.323-1.106-0.649c-0.247-0.326-0.325-0.699-0.233-1.12
		c0.119-0.545,0.56-0.903,1.323-1.072c-0.493-0.448-0.687-0.916-0.58-1.404c0.079-0.362,0.276-0.63,0.594-0.803
		c0.318-0.174,0.693-0.214,1.127-0.119c0.437,0.095,0.763,0.287,0.978,0.576c0.215,0.29,0.284,0.615,0.206,0.978
		C50.458,139.055,50.088,139.4,49.456,139.604z M49.549,140.983c0.047-0.216,0.009-0.418-0.114-0.608
		c-0.123-0.189-0.339-0.397-0.649-0.625c-0.374,0.078-0.657,0.178-0.847,0.3c-0.191,0.121-0.31,0.29-0.356,0.506
		c-0.062,0.282-0.02,0.523,0.125,0.724s0.365,0.333,0.66,0.397c0.295,0.063,0.551,0.035,0.767-0.087S49.487,141.266,49.549,140.983z
		 M48.904,139.205c0.579-0.122,0.912-0.383,0.999-0.783c0.05-0.229,0.019-0.424-0.092-0.584c-0.112-0.16-0.292-0.267-0.539-0.321
		c-0.246-0.053-0.452-0.03-0.62,0.069c-0.168,0.099-0.277,0.264-0.327,0.493C48.237,138.479,48.43,138.854,48.904,139.205z"></path>
	<path fill="#1D1D1B" d="M54.741,138.459l-2.475,4.354l-0.729-0.101l2.504-4.206l-2.599-0.357l0.083-0.601l3.28,0.45L54.741,138.459
		z"></path>
	<path fill="#1D1D1B" d="M58.718,138.674l-2.071,4.561l-0.735-0.033l2.113-4.416l-2.621-0.12l0.028-0.606l3.308,0.152
		L58.718,138.674z"></path>
	<path fill="#1D1D1B" d="M60.782,138.145l-1.363,5.146l-0.506,0.012l1.363-5.147L60.782,138.145z"></path>
	<path fill="#1D1D1B" d="M63.756,143.045l-0.653,0.057l-0.351-4.007c-0.249,0.199-0.65,0.322-1.204,0.371l-0.045-0.515
		c0.799-0.069,1.231-0.418,1.295-1.045l0.504-0.044L63.756,143.045z"></path>
	<path fill="#1D1D1B" d="M67.716,140.113c-0.274,0.421-0.628,0.666-1.062,0.736c-0.42,0.067-0.8-0.029-1.14-0.289
		s-0.547-0.626-0.624-1.099c-0.077-0.48,0.001-0.912,0.235-1.295c0.234-0.383,0.59-0.612,1.068-0.689
		c0.546-0.088,1.005,0.055,1.376,0.426c0.371,0.371,0.62,0.953,0.747,1.746c0.297,1.849-0.15,2.868-1.342,3.061
		c-0.376,0.061-0.713,0.006-1.01-0.163s-0.506-0.457-0.628-0.863l0.668-0.107c0.135,0.489,0.444,0.695,0.926,0.617
		c0.31-0.05,0.534-0.253,0.672-0.611C67.741,141.225,67.779,140.734,67.716,140.113z M67.643,139.612
		c-0.103-0.579-0.274-1.008-0.514-1.286c-0.241-0.278-0.521-0.392-0.839-0.341c-0.28,0.045-0.486,0.193-0.618,0.445
		c-0.131,0.253-0.17,0.546-0.116,0.882c0.055,0.34,0.185,0.604,0.391,0.794c0.206,0.189,0.452,0.261,0.739,0.215
		C67.042,140.264,67.361,140.027,67.643,139.612z"></path>
	<path fill="#1D1D1B" d="M71.783,141.672l-0.64,0.145l-0.886-3.925c-0.22,0.231-0.601,0.408-1.143,0.53L69,137.918
		c0.783-0.177,1.164-0.58,1.144-1.21l0.493-0.111L71.783,141.672z"></path>
	<path fill="#1D1D1B" d="M75.304,140.747l-0.632,0.176l-1.081-3.875c-0.208,0.242-0.58,0.438-1.115,0.587l-0.139-0.498
		c0.773-0.215,1.133-0.637,1.082-1.265l0.487-0.137L75.304,140.747z"></path>
</g>
<g>
	<path fill="#1D1D1B" d="M47.535,146.199l-3.206-0.896l-0.512,1.83l2.778,0.777l-0.196,0.702l-2.778-0.777l-0.749,2.677
		l-0.782-0.219l1.653-5.911l3.988,1.116L47.535,146.199z"></path>
	<path fill="#1D1D1B" d="M48.636,151.945l-0.799-0.167l1.255-6.009l0.799,0.167L48.636,151.945z"></path>
	<path fill="#1D1D1B" d="M51.625,146.318l1.934,0.226c2.071,0.241,2.989,1.367,2.754,3.377c-0.24,2.055-1.395,2.961-3.466,2.72
		l-1.934-0.226L51.625,146.318z M51.805,151.785l1.11,0.13c0.884,0.103,1.511-0.032,1.881-0.406c0.37-0.375,0.598-0.936,0.686-1.685
		c0.085-0.729-0.009-1.312-0.283-1.749c-0.274-0.437-0.854-0.706-1.741-0.81l-1.11-0.13L51.805,151.785z"></path>
	<path fill="#1D1D1B" d="M62.749,152.92l-4.574,0.152l-0.204-6.135l4.432-0.147l0.024,0.728l-3.62,0.121l0.062,1.874l3.386-0.112
		l0.024,0.729l-3.385,0.112l0.069,2.075l3.762-0.125L62.749,152.92z"></path>
	<path fill="#1D1D1B" d="M68.49,152.103l-3.753,0.578l-0.934-6.066l0.803-0.124l0.823,5.347l2.951-0.454L68.49,152.103z"></path>
	<path fill="#1D1D1B" d="M70.996,151.529l-0.796,0.182l-1.363-5.984l0.796-0.182L70.996,151.529z"></path>
	<path fill="#1D1D1B" d="M78.061,149.521l-0.877,0.269l-1.227-1.577l-2.458,0.753l-0.102,1.983l-0.82,0.252l0.457-6.56l0.837-0.256
		L78.061,149.521z M75.54,147.665l-1.866-2.406l-0.152,3.024L75.54,147.665z"></path>
</g>
</svg><style>@media (prefers-color-scheme: light) { :root { filter: none; } }
</style></svg>